PathFileType	4	(X/Y/Z)	C:/Users/Carlo/Dropbox/Carlos/SARAH/CongressoMarcha2025/WorkshopOpenSim/C3D/Caso02/Walking04.c3d.trc
DataRate	CameraRate	NumFrames	NumMarkers	Units	OrigDataRate	OrigDataStartFrame	OrigNumFrames
100.000000	100.000000	2	197	mm	100.000000	80	321
Frame#	Time	LFHD			RFHD			LBHD			RBHD			C7			STRN			LSHO			LUPA			LELB			LFRM			LWRA			LFIN			RSHO			RUPA			RELB			RFRM			RWRA			RWRB			RFIN			RASI			LANK			LHEE			LTOE			RTHI			RKNE			RTIB			RANK			RHEE			RTOE			PELO			PELA			PELL			PELP			LFEO			LFEA			LFEL			LFEP			LTIO			LTIA			LTIL			LTIP			LFOO			LFOA			LFOL			LFOP			RFEO			RFEA			RFEL			RFEP			RTIO			RTIA			RTIL			RTIP			RFOO			RFOA			RFOL			RFOP			LTOO			LTOA			LTOL			LTOP			RTOO			RTOA			RTOL			RTOP			HEDO			HEDA			HEDL			HEDP			LCLO			LCLA			LCLL			LCLP			RCLO			RCLA			RCLL			RCLP			TRXO			TRXA			TRXL			TRXP			LHUO			LHUA			LHUL			LHUP			LRAO			LRAA			LRAL			LRAP			LHNO			LHNA			LHNL			LHNP			RHUO			RHUA			RHUL			RHUP			RRAO			RRAA			RRAL			RRAP			RHNO			RHNA			RHNL			RHNP			LWRB			LTIB			LASI			LTHI			LKNE			RPSI			CLAV			RBAK			LPSI			T10			LHipAngles			LKneeAngles			LAbsAnkleAngle			LAnkleAngles			RHipAngles			RKneeAngles			RAnkleAngles			RAbsAnkleAngle			LPelvisAngles			RPelvisAngles			LFootProgressAngles			RFootProgressAngles			RNeckAngles			LNeckAngles			RSpineAngles			LSpineAngles			LShoulderAngles			LElbowAngles			LWristAngles			RShoulderAngles			RElbowAngles			RWristAngles			RThoraxAngles			LThoraxAngles			RHeadAngles			LHeadAngles			LHipPower			LKneePower			LAnklePower			RHipPower			RKneePower			RAnklePower			LWaistPower			RWaistPower			LNeckPower			RNeckPower			LShoulderPower			RShoulderPower			LElbowPower			RElbowPower			LWristPower			RWristPower			LGroundReactionForce			LNormalisedGRF			RGroundReactionForce			RNormalisedGRF			LAnkleForce			RAnkleForce			RKneeForce			LKneeForce			RHipForce			LHipForce			LWaistForce			RWaistForce			LNeckForce			RNeckForce			LShoulderForce			RShoulderForce			LElbowForce			RElbowForce			LWristForce			RWristForce			LGroundReactionMoment			RGroundReactionMoment			LAnkleMoment			RAnkleMoment			RKneeMoment			LKneeMoment			RHipMoment			LHipMoment			LWaistMoment			RWaistMoment			LNeckMoment			RNeckMoment			LShoulderMoment			RShoulderMoment			LElbowMoment			RElbowMoment			LWristMoment			RWristMoment			CentreOfMass			CentreOfMassFloor			
		X1	Y1	Z1	X2	Y2	Z2	X3	Y3	Z3	X4	Y4	Z4	X5	Y5	Z5	X6	Y6	Z6	X7	Y7	Z7	X8	Y8	Z8	X9	Y9	Z9	X10	Y10	Z10	X11	Y11	Z11	X12	Y12	Z12	X13	Y13	Z13	X14	Y14	Z14	X15	Y15	Z15	X16	Y16	Z16	X17	Y17	Z17	X18	Y18	Z18	X19	Y19	Z19	X20	Y20	Z20	X21	Y21	Z21	X22	Y22	Z22	X23	Y23	Z23	X24	Y24	Z24	X25	Y25	Z25	X26	Y26	Z26	X27	Y27	Z27	X28	Y28	Z28	X29	Y29	Z29	X30	Y30	Z30	X31	Y31	Z31	X32	Y32	Z32	X33	Y33	Z33	X34	Y34	Z34	X35	Y35	Z35	X36	Y36	Z36	X37	Y37	Z37	X38	Y38	Z38	X39	Y39	Z39	X40	Y40	Z40	X41	Y41	Z41	X42	Y42	Z42	X43	Y43	Z43	X44	Y44	Z44	X45	Y45	Z45	X46	Y46	Z46	X47	Y47	Z47	X48	Y48	Z48	X49	Y49	Z49	X50	Y50	Z50	X51	Y51	Z51	X52	Y52	Z52	X53	Y53	Z53	X54	Y54	Z54	X55	Y55	Z55	X56	Y56	Z56	X57	Y57	Z57	X58	Y58	Z58	X59	Y59	Z59	X60	Y60	Z60	X61	Y61	Z61	X62	Y62	Z62	X63	Y63	Z63	X64	Y64	Z64	X65	Y65	Z65	X66	Y66	Z66	X67	Y67	Z67	X68	Y68	Z68	X69	Y69	Z69	X70	Y70	Z70	X71	Y71	Z71	X72	Y72	Z72	X73	Y73	Z73	X74	Y74	Z74	X75	Y75	Z75	X76	Y76	Z76	X77	Y77	Z77	X78	Y78	Z78	X79	Y79	Z79	X80	Y80	Z80	X81	Y81	Z81	X82	Y82	Z82	X83	Y83	Z83	X84	Y84	Z84	X85	Y85	Z85	X86	Y86	Z86	X87	Y87	Z87	X88	Y88	Z88	X89	Y89	Z89	X90	Y90	Z90	X91	Y91	Z91	X92	Y92	Z92	X93	Y93	Z93	X94	Y94	Z94	X95	Y95	Z95	X96	Y96	Z96	X97	Y97	Z97	X98	Y98	Z98	X99	Y99	Z99	X100	Y100	Z100	X101	Y101	Z101	X102	Y102	Z102	X103	Y103	Z103	X104	Y104	Z104	X105	Y105	Z105	X106	Y106	Z106	X107	Y107	Z107	X108	Y108	Z108	X109	Y109	Z109	X110	Y110	Z110	X111	Y111	Z111	X112	Y112	Z112	X113	Y113	Z113	X114	Y114	Z114	X115	Y115	Z115	X116	Y116	Z116	X117	Y117	Z117	X118	Y118	Z118	X119	Y119	Z119	X120	Y120	Z120	X121	Y121	Z121	X122	Y122	Z122	X123	Y123	Z123	X124	Y124	Z124	X125	Y125	Z125	X126	Y126	Z126	X127	Y127	Z127	X128	Y128	Z128	X129	Y129	Z129	X130	Y130	Z130	X131	Y131	Z131	X132	Y132	Z132	X133	Y133	Z133	X134	Y134	Z134	X135	Y135	Z135	X136	Y136	Z136	X137	Y137	Z137	X138	Y138	Z138	X139	Y139	Z139	X140	Y140	Z140	X141	Y141	Z141	X142	Y142	Z142	X143	Y143	Z143	X144	Y144	Z144	X145	Y145	Z145	X146	Y146	Z146	X147	Y147	Z147	X148	Y148	Z148	X149	Y149	Z149	X150	Y150	Z150	X151	Y151	Z151	X152	Y152	Z152	X153	Y153	Z153	X154	Y154	Z154	X155	Y155	Z155	X156	Y156	Z156	X157	Y157	Z157	X158	Y158	Z158	X159	Y159	Z159	X160	Y160	Z160	X161	Y161	Z161	X162	Y162	Z162	X163	Y163	Z163	X164	Y164	Z164	X165	Y165	Z165	X166	Y166	Z166	X167	Y167	Z167	X168	Y168	Z168	X169	Y169	Z169	X170	Y170	Z170	X171	Y171	Z171	X172	Y172	Z172	X173	Y173	Z173	X174	Y174	Z174	X175	Y175	Z175	X176	Y176	Z176	X177	Y177	Z177	X178	Y178	Z178	X179	Y179	Z179	X180	Y180	Z180	X181	Y181	Z181	X182	Y182	Z182	X183	Y183	Z183	X184	Y184	Z184	X185	Y185	Z185	X186	Y186	Z186	X187	Y187	Z187	X188	Y188	Z188	X189	Y189	Z189	X190	Y190	Z190	X191	Y191	Z191	X192	Y192	Z192	X193	Y193	Z193	X194	Y194	Z194	X195	Y195	Z195	X196	Y196	Z196	X197	Y197	Z197	

81	0.8	476.0788269042971	1684.306152343751	264.9578247070314	474.8774108886721	1678.159545898438	137.9717254638672	630.4434814453127	1660.318725585938	263.0125122070314	614.4890747070315	1662.263549804688	121.8288497924805	665.8873291015627	1478.144653320313	191.4018859863282	471.5425720214846	1243.280639648438	222.8923645019532	633.3120117187502	1425.377075195313	406.3418579101565	628.5251464843752	1257.585693359375	455.2254943847659	639.1006469726565	1082.08349609375	473.4441223144534	581.8519287109377	967.083129882813	502.1917724609377	467.0181579589846	873.844116210938	473.6822204589846	455.9259033203127	792.757202148438	526.3040161132815	589.445495605469	1403.823974609375	-12.41886997222901	621.0984497070315	1190.076171875	-66.10334777832034	651.2663574218752	1072.419677734375	-72.8641052246094	598.739929199219	934.1740112304692	-75.6197204589844	575.4822387695315	811.1072387695317	-33.91805648803712	642.8502197265627	809.6227416992192	-72.16884613037112	593.6550903320315	732.0496826171877	-74.43549346923831	504.2640686035159	996.7676391601567	141.3596191406251	1024.31884765625	195.5272674560548	314.3411865234376	1069.875366210938	220.4958038330079	260.5106506347657	993.738159179688	50.42074203491214	272.1152343750001	409.9775695800784	666.3560180664065	106.3664321899415	380.280975341797	516.759704589844	144.7661132812501	370.4903259277345	264.4939880371095	135.2978210449219	364.4602355957032	81.41980743408206	150.3935852050782	428.0447082519534	47.49850463867189	193.4948272705079	227.666717529297	44.91814041137697	195.3439025878907	577.778015136719	895.4140625000005	233.1169433593751	451.9244689941409	896.4929199218755	265.586395263672	610.2378540039065	894.243286132813	358.9721679687501	579.1151123046877	1025.383422851563	233.9811401367189	701.881774902344	486.7679443359377	320.5500488281251	293.3197631835939	379.3347167968751	321.1417236328126	696.1810302734377	510.7702331542971	742.2805175781252	594.5982666015627	894.6247558593755	295.8871459960939	1013.662475585938	191.6105651855469	270.7970275878907	746.3112792968752	-106.3443603515626	363.0262451171876	1110.945922851563	227.3662261962892	668.3111572265627	717.3192138671877	472.1536560058596	318.0866088867189	977.3127441406255	65.11086273193362	284.560272216797	810.804077148438	134.8486328125001	324.2153930664064	1016.42919921875	55.92201232910159	464.9666748046877	1047.35400390625	236.0295715332032	278.0792236328126	416.3650817871096	506.0312805175784	192.1273651123048	114.7887878417969	632.213562011719	450.4788818359377	664.8814697265627	432.1428527832034	518.3110961914065	560.9578857421877	896.2033691406255	170.3467559814454	384.2846679687502	79.79814147949222	190.7589416503907	21.04498291015626	106.5611724853516	370.2300415039064	563.1629638671877	65.16554260253909	554.9808349609377	414.758972167969	484.6917114257815	192.0588531494142	248.6949157714845	70.44966888427737	182.4466552734376	251.5175933837892	258.9289855957032	207.6294250488282	256.2532348632814	45.17282104492189	370.7828979492189	438.6988525390627	68.65515899658206	174.5805664062501	953.9655761718755	8.13794040679932	286.7206115722657	898.4627075195317	31.38385009765626	299.9389953613282	967.0043945312505	5.074984550476076	346.8560791015626	977.3126831054692	65.11086273193362	284.560272216797	185.3602600097657	71.04782867431643	185.0686798095704	186.3011169433594	133.8742828369141	193.4629516601564	187.8797149658204	62.62220382690433	247.8474426269532	248.6949157714845	70.44969177246097	182.4466400146485	654.9768676757815	1588.194335937501	191.4994201660157	430.512634277344	1618.647094726563	205.3105773925782	669.3931884765627	1591.751953125001	417.9543457031252	685.147888183594	1813.054931640626	186.046127319336	627.394470214844	1368.694458007813	395.5691833496096	432.1648254394534	1370.0068359375	495.9047851562502	649.7900390625002	1583.216674804688	436.339782714844	529.5814208984377	1415.192626953125	204.6395874023439	586.4199218750002	1348.627197265625	5.135779380798342	376.4114685058595	1341.831176757813	-52.42790985107425	575.0552368164065	1141.296142578125	71.0749435424805	529.581481933594	1415.192504882813	204.6395874023439	529.581481933594	1415.192626953125	204.6395721435548	312.1485595703126	1412.877807617188	227.8848114013673	506.4644165039065	1405.195434570313	-12.58940124511719	532.9436035156252	1196.749389648438	214.3348693847657	651.3284912109377	1077.8994140625	431.9083251953127	942.066528320313	1096.88330078125	392.333679199219	614.5357666015627	1038.74609375	142.8263244628907	627.394470214844	1368.6943359375	395.5691833496096	499.480895996094	852.1965332031255	481.803894042969	712.0296020507815	707.5493774414065	474.3430175781252	467.2962951660159	817.946899414063	228.9274291992189	640.6992187500002	1062.100341796875	435.401062011719	421.6437988281252	713.797058105469	525.7159423828127	391.6426391601565	777.8753051757817	674.4949951171877	563.709411621094	651.5004882812502	581.1940917968752	499.480895996094	852.1965332031255	481.803894042969	678.6862792968752	1076.232543945313	-39.31020736694337	946.9875488281255	1175.744873046875	-92.2167663574219	613.9656982421877	1100.435913085938	-321.9988098144532	586.4200439453127	1348.627197265625	5.13582229614258	612.5518188476565	809.1693725585942	-47.03440475463869	854.4151000976567	751.0208740234377	-107.3867492675782	555.623962402344	830.4584350585942	-295.6857299804689	674.056823730469	1057.5380859375	-39.85088348388673	599.278991699219	649.7575683593752	-58.57007980346683	520.7928466796877	666.341979980469	-197.4450683593751	460.0484313964846	655.605407714844	20.81536483764649	612.5518188476565	809.1694335937505	-47.03438949584962	529.1566162109377	835.6716918945317	502.653015136719	862.1555175781255	356.3598937988282	363.8516540527345	558.2648925781252	994.8198852539067	350.734832763672	642.2395019531252	714.0959472656252	413.5943603515627	701.0653076171877	490.2053222656252	380.9468078613282	696.380554199219	991.0007324218755	126.2911758422852	522.621520996094	1415.118408203125	205.3836212158204	737.376403808594	1307.411499023438	143.3816986083985	728.968933105469	997.541625976563	262.4270019531251	723.645935058594	1215.992431640625	193.1551208496095	-7.391308784484867	13.87869167327882	-13.96500396728516	9.407424926757816	-11.20456981658936	32.09278488159181	0	0	-20.73935699462891	-1.568144798278809	7.833755493164066	-20.9438762664795	-1.58226776123047	24.64823722839357	19.9634075164795	7.444114685058597	-11.59132671356202	14.58191299438477	5.619646072387697	-23.78988075256348	-4.101301670074465	0	0	-3.752281427383425	-0.3809554874897005	-14.46631717681885	-0.589415490627289	0.3809554874897005	14.46631717681885	-0.589415490627289	12.39702033996583	-2.009510278701783	-22.28347969055176	-7.615952968597416	2.370565176010133	-90.5411071777344	-1.693726062774659	2.450712680816651	-8.43067836761475	1.693726062774659	-2.450712680816651	-8.43067836761475	3.061265468597414	8.417022705078129	1.153704762458802	-3.061265468597414	-8.417022705078129	1.153704762458802	4.950868606567385	-1.223563551902771	-3.286433696746828	0	-2.68359299219383e-14	38.30631637573244	5.225236415863039	112.9702377319337	-4.277352333068849	9.788891792297367	7.097165584564213	-18.75767707824708	0	3.110582538073949e-12	33.24531555175783	0.3213193118572236	106.5427627563477	-9.471771240234379	-2.541016817092896	6.107863903045658	0.8817851543426518	2.541016817092896	-6.107863903045658	0.8817851543426518	-1.376938581466675	3.490061998367311	7.642109870910648	1.376938581466675	-3.490061998367311	7.642109870910648	0	0.2191200703382493	0	0	-0.3260434269905091	0	0	-0.3331404626369477	0	0	0.1105934455990792	0	0	-1.409350752830506	0	0	-0.4903372824192049	0	0	-0.5011742711067202	0	0	-0.5011742711067202	0	0	0.02505674213171007	0	0	0.02505674213171007	0	0	-0.02888377383351327	0	0	0.02388687990605833	0	0	-0.01962096244096757	0	0	-0.007040670607239011	0	0	-0.001630238723009826	0	0	-0.001346178236417473	0	nan	nan	nan	nan	nan	nan	2.44114899635315	10.16662406921387	0.08121739327907565	-0.8279041051864628	103.6353149414063	24.88429260253908	-0.0238950625061989	-0.07764588296413424	-0.2900389730930329	1.183870911598206	2.257792949676515	9.932022094726566	-0.4790739417076113	-9.553112983703617	1.514826059341432	-0.05067908391356471	0.8591928482055669	-0.1753671020269394	0.6770557761192324	-8.592441558837894	-0.6096805334091189	-0.05736474692821505	1.940184593200684	-0.2410127818584443	-0.06509760767221454	-5.105292320251467	1.92567265033722	-0.06509760767221454	-5.105292320251467	1.92567265033722	0.2337219119071962	-0.4153745770454409	0.3710250556468965	0.2337219119071962	-0.4153745770454409	0.3710250556468965	-0.151176393032074	0.4786538779735567	0.07125879079103473	0.04143821820616723	0.4855379164218905	0.1951424032449723	-0.05141350254416469	0.1901219487190248	-0.1281494200229645	0.05080033466219905	0.2138782739639283	-0.1011184006929398	-0.02828033454716207	0.05968477204442027	0.02465716935694219	0.02781944908201696	0.06469767540693286	0.02916052006185056	nan	nan	nan	383.7309570312501	-151.0111541748047	961.883422851563	1.894780727514112e-15	-12.56590080261231	-53.58973693847659	34.67578125000001	-59.78054046630862	141.1640625000001	284.858612060547	-43.60029602050783	508.135437011719	-21.41301536560059	-7.734949588775638	78.36796569824222	114.0781478881837	-82.56272125244143	-43.43203735351564	-29.53860282897951	7.825869083404545	-154.5565948486329	480.0740661621096	-181.1604461669922	-501.2371520996096	-480.0740661621096	181.1604461669922	-501.2371520996096	452.413024902344	-202.8898773193361	-636.2658691406252	-452.413024902344	202.8898773193361	-636.2658691406252	33.21483612060548	-3.013082742691042	-17.51645469665528	30.01376342773439	-6.560214042663578	-4.486905574798586	5.168662548065187	0.2431388795375825	-25.30092430114748	12.34453964233399	0.2479526400566102	-27.02818679809572	2.046791315078736	1.894780727514112e-15	1.263722062110901	2.187603473663331	-4.50010393667844e-16	2.126812219619752	593.3092041015627	978.366821289063	221.4674224853517	593.3092041015627	0	221.4674224853517	
82	0.8100000000000001	462.090026855469	1685.016601562501	264.090301513672	460.931823730469	1678.839721679688	137.0963287353516	616.5020751953127	1661.216674804688	262.1697082519532	600.5835571289065	1663.128051757813	121.0146636962891	652.165222167969	1479.1162109375	190.8400878906251	458.0666809082034	1243.822143554688	222.5183868408204	619.078063964844	1427.1728515625	405.8897705078127	616.253601074219	1259.361206054688	454.7377929687502	629.1460571289065	1084.12939453125	472.2143859863284	574.646911621094	967.9602050781255	501.5805358886721	460.9888305664065	872.5032348632817	475.4065246582034	453.5410156250002	790.778198242188	527.9043579101565	574.9509887695315	1404.5478515625	-12.76176738739014	603.9919433593752	1190.451416015625	-66.59156036376956	633.4373779296877	1072.686889648438	-73.78311157226565	579.6983032226565	934.9462280273442	-76.4306335449219	555.8709716796877	811.861206054688	-34.94384002685548	622.8637695312502	810.0475463867192	-73.66973114013675	573.3395996093752	732.6218872070315	-75.49798583984378	491.7453918457034	998.1499023437505	139.5320434570313	1004.978942871094	201.9567871093751	316.8469848632814	1047.55029296875	230.7527618408204	261.6271057128907	984.734252929688	56.13077163696292	272.7295837402345	396.631286621094	667.4649047851565	106.7415618896485	368.3270263671876	517.5157470703127	146.5022430419922	363.7673645019532	264.9689025878907	136.2171478271485	363.9999389648439	81.68250274658206	150.9753570556641	427.8842773437502	47.65892791748048	193.7486114501954	227.0603942871095	44.33974838256837	195.9910736083986	564.362487792969	895.9044799804692	231.3025970458986	438.270935058594	897.0696411132817	262.832244873047	595.869567871094	893.692504882813	357.3857421875001	566.0292968750002	1025.859497070313	233.1659698486329	679.4291992187502	484.6470336914065	324.4631958007814	268.5020141601564	385.4239196777346	320.878387451172	668.8475341796877	513.2366333007815	746.114685058594	580.7068481445315	894.5942382812505	294.189666748047	993.5277709960942	197.0978851318361	273.6004943847657	736.1904296875002	-101.9963836669922	375.3450317382814	1097.21728515625	241.0947570800782	665.1928710937502	695.1021728515627	470.2988281250002	321.9252319335939	967.4566040039067	67.93305969238284	285.832977294922	797.103393554688	123.7895965576172	330.7866516113282	1011.737182617188	58.75274658203128	465.0422668457034	1023.848266601563	243.8784027099611	280.9123535156251	405.1603088378909	507.0215454101565	193.3363494873048	107.4277648925782	632.7822875976565	455.6713867187502	658.5909423828127	434.8162841796877	515.5775146484377	548.018005371094	897.2147827148442	168.4155273437501	385.464294433594	80.42925262451175	190.5065155029297	29.41970825195314	95.58244323730472	384.3093261718752	578.9561767578127	69.131706237793	546.863220214844	404.1733398437502	485.6448669433596	193.1945343017579	249.8718566894532	70.4676208496094	182.9877471923829	251.9592895507814	258.8685607910157	208.8203430175782	258.7002563476564	44.56529998779298	371.1837158203126	439.830505371094	69.60111999511722	173.9573974609376	948.6594238281255	9.284586906433109	287.4731750488282	891.8750000000005	27.90341186523439	302.457733154297	963.4196166992192	6.224502563476566	347.2095947265626	967.4566040039067	67.93306732177737	285.8329467773439	186.5522918701172	70.75643157958987	185.9978790283204	187.2480773925782	133.5567626953126	194.6087493896486	189.495101928711	62.12231445312503	248.7298736572267	249.8718566894532	70.46762847900393	182.9877471923829	641.1321411132815	1589.119506835938	190.6924743652344	416.6250610351565	1619.285156250001	204.4365997314454	655.4810180664065	1592.731445312501	417.1508483886721	671.0148925781252	1814.017944335938	185.2119750976563	613.3021240234377	1370.437622070313	395.319274902344	418.0291748046877	1371.715454101563	495.1631469726565	635.143493652344	1584.977172851563	435.2906799316409	515.868103027344	1415.96923828125	204.1768035888673	572.063903808594	1349.366455078125	4.863784790039064	362.1964721679689	1342.210571289063	-51.91672515869143	561.2357177734377	1142.406494140625	70.96887207031253	515.8679199218752	1415.96923828125	204.1767730712892	515.8680419921877	1415.968994140625	204.1767730712892	298.6768188476564	1413.281860351563	227.2142639160157	492.9810180664065	1405.636596679688	-12.80108642578126	519.627136230469	1197.803955078125	214.169158935547	641.0192871093752	1080.205810546875	430.5504455566409	930.537231445313	1102.528930664063	386.6765747070315	600.337585449219	1041.332275390625	142.3182678222657	613.3021240234377	1370.437622070313	395.319274902344	494.1353759765627	851.4511718750005	482.1338500976565	709.2857055664065	710.7346191406252	470.7453613281252	458.4877014160159	817.3879394531255	229.5680999755861	630.7373046875002	1064.192993164063	434.161315917969	420.9149169921877	711.031677246094	528.1480102539065	395.3535766601565	773.6471557617192	678.5544433593752	566.453796386719	651.3840332031252	577.7139282226565	494.1354064941409	851.4511718750005	482.1339111328127	661.1580810546877	1076.198486328125	-40.44423675537111	930.0796508789067	1172.902465820313	-94.6737976074219	595.167907714844	1101.47607421875	-322.6101989746095	572.0637817382815	1349.366333007813	4.863754272460939	592.7901000976565	809.7155761718755	-48.32766723632815	833.8317871093755	749.7014160156252	-110.0764999389649	534.721862792969	831.958618164063	-296.6199340820314	656.3723144531252	1057.544677734375	-40.99611663818361	578.7238769531252	650.2940673828127	-59.58889389038089	499.2132873535159	667.0811157226565	-197.922332763672	440.087341308594	656.841491699219	20.89044570922852	592.7901611328127	809.715698242188	-48.32767105102542	524.8284912109377	835.3071289062505	501.7410278320315	841.1137695312505	360.1475830078126	367.4180908203126	544.2798461914065	994.4616699218755	349.7608642578126	623.3567504882815	713.5694580078127	415.7608642578127	677.9147949218752	488.738464355469	384.8056640625002	683.5207519531252	991.8081054687505	126.6539001464844	508.9075927734377	1415.882934570313	204.9150543212892	723.5316162109377	1308.5322265625	142.6815032958985	716.2541503906252	997.567260742188	262.9540405273439	710.4835205078127	1217.225952148438	193.1125946044923	-8.196773529052738	14.02399921417237	-12.71544361114503	10.48412418365479	-12.64264965057374	34.25841522216798	0	0	-24.3085060119629	-1.846352100372315	8.907643318176273	-24.62485122680665	-0.5250797867774966	25.64645957946779	19.81931304931641	8.051393508911136	-9.945004463195804	16.00326347351075	6.182045936584476	-25.7760696411133	-2.622483968734742	0	0	-2.361379623413087	-0.8214237093925481	-14.04004764556885	-0.7348521351814272	0.8214237093925481	14.04004764556885	-0.7348521351814272	14.08179759979249	-1.525560498237611	-17.77099418640137	-7.815833091735843	2.721680879592896	-90.2613220214844	-1.767345905303956	2.418633699417115	-8.458278656005863	1.767345905303956	-2.418633699417115	-8.458278656005863	3.605124950408937	8.049014091491703	1.351535320281983	-3.605124950408937	-8.049014091491703	1.351535320281983	4.732777118682863	-2.059756755828858	-3.958600521087648	-1.590277359294756e-15	-3.799172781926431e-12	37.88061141967775	5.718199729919435	111.7904434204102	-4.729891300201418	10.11829090118409	7.383417606353763	-18.0251693725586	3.97569339823689e-16	1.172034366260511e-12	33.10707473754884	0.09327881783246997	106.6793823242188	-9.633867263793949	-2.62204146385193	6.060640335083011	0.9871627688407902	2.62204146385193	-6.060640335083011	0.9871627688407902	-1.383807420730591	3.473101615905763	7.568682193756107	1.383807420730591	-3.473101615905763	7.568682193756107	0	0.4108308255672457	0	0	-0.2559961080551149	0	0	-0.3811930418014529	0	0	-0.6598766446113589	0	0	-1.792509555816651	0	0	-0.5589810609817507	0	0	-0.1343799531459809	0	0	-0.1343799531459809	0	0	-0.027184646576643	0	0	-0.027184646576643	0	0	-0.02736716344952585	0	0	0.02020218223333359	0	0	-0.02048056758940221	0	0	-0.005378988571465017	0	0	-0.001964051974937321	0	0	-0.001226953812874854	0	nan	nan	nan	nan	nan	nan	2.60457992553711	10.9914608001709	0.1218694671988488	-1.242298364639283	112.0434341430665	26.55025291442873	-0.03382627665996553	-0.1500235944986344	-0.3851780891418459	1.220789432525635	2.749780893325807	10.79086971282959	-1.105493545532227	-10.58913230895996	2.206946134567262	0.04773405939340594	1.13286030292511	-0.2889603674411775	0.2653844952583314	-9.954607009887699	-0.9082041382789616	0.3123792707920076	2.488592624664308	-0.1643868833780289	-0.04620926454663278	-5.665179252624513	2.691489219665528	-0.04620926454663278	-5.665179252624513	2.691489219665528	0.3896771073341372	-0.6214843988418581	1.135215878486634	0.3896771073341372	-0.6214843988418581	1.135215878486634	-0.153344213962555	0.4542958140373232	0.08011176437139514	0.0334036983549595	0.490120977163315	0.2009822726249696	-0.0605292581021786	0.1771082729101182	-0.1244442462921143	0.04593342170119287	0.2183823287487031	-0.09870982915163046	-0.03028636239469053	0.05774348974227908	0.02583915367722513	0.02735706791281702	0.06713385879993441	0.02919235825538637	nan	nan	nan	406.6251525878909	-161.7850799560547	1005.127075195313	7.200166298685504e-15	-15.38733196258546	-73.98011016845706	48.07244491577151	-59.02090072631839	210.7284698486329	467.0821838378909	-33.63290023803712	729.9851684570315	-13.86713123321534	-7.011237621307377	62.40082931518558	523.1470947265627	-107.6601867675782	-180.8137664794922	47.77639007568361	3.844177246093752	-177.4338989257813	354.2693786621095	-81.79190063476565	-916.7538452148442	-354.2693786621095	81.79190063476565	-916.7538452148442	434.8675842285159	-130.3007202148438	-1393.125	-434.8675842285159	130.3007202148438	-1393.125	36.87334442138673	-3.866031885147097	-20.9321460723877	26.98557090759279	-6.297278404235843	-2.135891199111939	6.664751052856449	0.2866444289684297	-26.26904487609865	11.93274021148682	0.2631747126579286	-26.89519691467287	2.434267520904542	-4.736951818785279e-16	1.205299973487854	2.186987876892091	4.026408966558149e-16	2.26943063735962	579.828796386719	979.0532226562505	221.4053955078126	579.828796386719	0	221.4053955078126	
